<svg width="43" height="44" viewBox="0 0 43 44" fill="none" xmlns="http://www.w3.org/2000/svg">
<rect x="1" y="1.5" width="41" height="41" rx="20.5" stroke="#06C42C" stroke-width="2"/>
<path d="M20.5 14H13.5C12.9696 14 12.4609 14.2107 12.0858 14.5858C11.7107 14.9609 11.5 15.4696 11.5 16V30C11.5 30.5304 11.7107 31.0391 12.0858 31.4142C12.4609 31.7893 12.9696 32 13.5 32H27.5C28.0304 32 28.5391 31.7893 28.9142 31.4142C29.2893 31.0391 29.5 30.5304 29.5 30V23" stroke="#06C42C" stroke-width="2" stroke-linecap="round" stroke-linejoin="round"/>
<path d="M28 12.5002C28.3978 12.1024 28.9374 11.8789 29.5 11.8789C30.0626 11.8789 30.6022 12.1024 31 12.5002C31.3978 12.8981 31.6213 13.4376 31.6213 14.0002C31.6213 14.5628 31.3978 15.1024 31 15.5002L21.5 25.0002L17.5 26.0002L18.5 22.0002L28 12.5002Z" stroke="#06C42C" stroke-width="2" stroke-linecap="round" stroke-linejoin="round"/>
</svg>
