<svg width="43" height="43" viewBox="0 0 43 43" fill="none" xmlns="http://www.w3.org/2000/svg">
<rect x="1" y="1" width="41" height="41" rx="20.5" stroke="#06C42C" stroke-width="2"/>
<path d="M20.5 13.5H13.5C12.9696 13.5 12.4609 13.7107 12.0858 14.0858C11.7107 14.4609 11.5 14.9696 11.5 15.5V29.5C11.5 30.0304 11.7107 30.5391 12.0858 30.9142C12.4609 31.2893 12.9696 31.5 13.5 31.5H27.5C28.0304 31.5 28.5391 31.2893 28.9142 30.9142C29.2893 30.5391 29.5 30.0304 29.5 29.5V22.5" stroke="#06C42C" stroke-width="2" stroke-linecap="round" stroke-linejoin="round"/>
<path d="M28 12.0002C28.3978 11.6024 28.9374 11.3789 29.5 11.3789C30.0626 11.3789 30.6022 11.6024 31 12.0002C31.3978 12.3981 31.6213 12.9376 31.6213 13.5002C31.6213 14.0628 31.3978 14.6024 31 15.0002L21.5 24.5002L17.5 25.5002L18.5 21.5002L28 12.0002Z" stroke="#06C42C" stroke-width="2" stroke-linecap="round" stroke-linejoin="round"/>
</svg>
