<svg width="32" height="32" viewBox="0 0 32 32" fill="none" xmlns="http://www.w3.org/2000/svg">
<g clip-path="url(#clip0_141_20667)">
<path d="M16 3.09385C20.2062 3.09385 20.7 3.1126 22.3625 3.1876C23.9 3.25635 24.7312 3.5126 25.2875 3.73135C26.025 4.01885 26.55 4.35635 27.1 4.90635C27.65 5.45635 27.9937 5.98135 28.275 6.71885C28.4875 7.2751 28.75 8.10635 28.8187 9.64385C28.8937 11.3063 28.9125 11.8001 28.9125 16.0063C28.9125 20.2126 28.8937 20.7063 28.8187 22.3688C28.75 23.9063 28.4937 24.7376 28.275 25.2939C27.9875 26.0314 27.65 26.5564 27.1 27.1064C26.55 27.6564 26.025 28.0001 25.2875 28.2814C24.7312 28.4939 23.9 28.7564 22.3625 28.8251C20.7 28.9001 20.2062 28.9189 16 28.9189C11.7937 28.9189 11.3 28.9001 9.63748 28.8251C8.09998 28.7564 7.26873 28.5001 6.71248 28.2814C5.97498 27.9939 5.44998 27.6564 4.89998 27.1064C4.34998 26.5564 4.00623 26.0314 3.72498 25.2939C3.51248 24.7376 3.24998 23.9063 3.18123 22.3688C3.10623 20.7063 3.08748 20.2126 3.08748 16.0063C3.08748 11.8001 3.10623 11.3063 3.18123 9.64385C3.24998 8.10635 3.50623 7.2751 3.72498 6.71885C4.01248 5.98135 4.34998 5.45635 4.89998 4.90635C5.44998 4.35635 5.97498 4.0126 6.71248 3.73135C7.26873 3.51885 8.09998 3.25635 9.63748 3.1876C11.3 3.10635 11.7937 3.09385 16 3.09385ZM16 0.256348C11.725 0.256348 11.1875 0.275098 9.50623 0.350098C7.83123 0.425098 6.68748 0.693848 5.68748 1.08135C4.64998 1.48135 3.77498 2.0251 2.89998 2.9001C2.02498 3.7751 1.48748 4.65635 1.08123 5.6876C0.693726 6.6876 0.424976 7.83135 0.349976 9.5126C0.274976 11.1876 0.256226 11.7251 0.256226 16.0001C0.256226 20.2751 0.274976 20.8126 0.349976 22.4938C0.424976 24.1688 0.693726 25.3126 1.08123 26.3189C1.48123 27.3564 2.02498 28.2314 2.89998 29.1064C3.77498 29.9814 4.65623 30.5189 5.68748 30.9251C6.68748 31.3126 7.83122 31.5814 9.51248 31.6564C11.1937 31.7314 11.725 31.7501 16.0062 31.7501C20.2875 31.7501 20.8187 31.7314 22.5 31.6564C24.175 31.5814 25.3187 31.3126 26.325 30.9251C27.3625 30.5251 28.2375 29.9814 29.1125 29.1064C29.9875 28.2314 30.525 27.3501 30.9312 26.3189C31.3187 25.3189 31.5875 24.1751 31.6625 22.4938C31.7375 20.8126 31.7562 20.2813 31.7562 16.0001C31.7562 11.7188 31.7375 11.1876 31.6625 9.50635C31.5875 7.83135 31.3187 6.6876 30.9312 5.68135C30.5312 4.64385 29.9875 3.76885 29.1125 2.89385C28.2375 2.01885 27.3562 1.48135 26.325 1.0751C25.325 0.687598 24.1812 0.418848 22.5 0.343848C20.8125 0.275098 20.275 0.256348 16 0.256348Z" fill="url(#paint0_linear_141_20667)"/>
<path d="M16 7.9126C11.5375 7.9126 7.91248 11.5313 7.91248 16.0001C7.91248 20.4688 11.5375 24.0876 16 24.0876C20.4625 24.0876 24.0875 20.4626 24.0875 16.0001C24.0875 11.5376 20.4625 7.9126 16 7.9126ZM16 21.2501C13.1 21.2501 10.75 18.9001 10.75 16.0001C10.75 13.1001 13.1 10.7501 16 10.7501C18.9 10.7501 21.25 13.1001 21.25 16.0001C21.25 18.9001 18.9 21.2501 16 21.2501Z" fill="url(#paint1_linear_141_20667)"/>
<path d="M24.4062 9.48154C25.4486 9.48154 26.2937 8.63648 26.2937 7.59404C26.2937 6.55161 25.4486 5.70654 24.4062 5.70654C23.3637 5.70654 22.5187 6.55161 22.5187 7.59404C22.5187 8.63648 23.3637 9.48154 24.4062 9.48154Z" fill="url(#paint2_linear_141_20667)"/>
</g>
<defs>
<linearGradient id="paint0_linear_141_20667" x1="-3.5" y1="-2" x2="25" y2="26.5" gradientUnits="userSpaceOnUse">
<stop stop-color="#6818F7"/>
<stop offset="1" stop-color="#FB3445"/>
</linearGradient>
<linearGradient id="paint1_linear_141_20667" x1="1.5" y1="2" x2="30.5" y2="29.5" gradientUnits="userSpaceOnUse">
<stop stop-color="#6818F7"/>
<stop offset="1" stop-color="#FB3445"/>
</linearGradient>
<linearGradient id="paint2_linear_141_20667" x1="11.9999" y1="1.50024" x2="29.9528" y2="12.0213" gradientUnits="userSpaceOnUse">
<stop stop-color="#6818F7"/>
<stop offset="1" stop-color="#FB3445"/>
</linearGradient>
<clipPath id="clip0_141_20667">
<rect width="32" height="32" fill="white"/>
</clipPath>
</defs>
</svg>
