<svg width="35" height="33" viewBox="0 0 35 33" fill="none" xmlns="http://www.w3.org/2000/svg">
<g clip-path="url(#clip0_141_20668)">
<path d="M35 14.0512C35 6.30043 27.1394 0 17.5 0C7.86058 0 0 6.30043 0 14.0512C0 20.9935 6.22596 26.8184 14.6394 27.9121C15.2163 28.031 15.9856 28.2925 16.1779 28.768C16.3462 29.196 16.2981 29.8854 16.226 30.3372C16.226 30.3372 16.0096 31.5497 15.9856 31.8112C15.9135 32.2392 15.625 33.5231 17.5 32.7385C19.375 31.9539 27.5721 26.866 31.25 22.6816C33.7981 19.9236 35 17.1419 35 14.0274V14.0512ZM11.3221 18.188C11.3221 18.3782 11.1779 18.5209 10.9856 18.5209H6.08173C6.08173 18.5209 5.91346 18.4733 5.84135 18.4258C5.79327 18.3545 5.74519 18.2831 5.74519 18.188V10.6513C5.74519 10.4611 5.88942 10.3184 6.08173 10.3184H7.30769C7.5 10.3184 7.64423 10.4611 7.64423 10.6513V16.6427H10.9856C11.1779 16.6427 11.3221 16.7853 11.3221 16.9755V18.188ZM14.2788 18.188C14.2788 18.3782 14.1346 18.5209 13.9423 18.5209H12.7163C12.524 18.5209 12.3798 18.3782 12.3798 18.188V10.6513C12.3798 10.4611 12.524 10.3184 12.7163 10.3184H13.9423C14.1346 10.3184 14.2788 10.4611 14.2788 10.6513V18.188ZM22.7404 18.188C22.7404 18.3782 22.5962 18.5209 22.4038 18.5209H21.1779C21.1779 18.5209 21.1298 18.5209 21.0817 18.5209C21.0577 18.5209 21.0096 18.4733 20.9856 18.4496L17.476 13.7658V18.2356C17.476 18.4258 17.3317 18.5684 17.1394 18.5684H15.9135C15.7212 18.5684 15.5769 18.4258 15.5769 18.2356V10.6988C15.5769 10.5086 15.7212 10.366 15.9135 10.366H17.1394C17.1394 10.366 17.1394 10.366 17.1635 10.3898L20.649 15.0497V10.5562C20.649 10.366 20.7933 10.2233 20.9856 10.2233H22.2115C22.4038 10.2233 22.5481 10.366 22.5481 10.5562V18.0929L22.7404 18.188ZM29.5192 11.8638C29.5192 12.054 29.375 12.1967 29.1827 12.1967H25.8413V13.4805H29.1827C29.375 13.4805 29.5192 13.6232 29.5192 13.8134V15.0259C29.5192 15.2161 29.375 15.3588 29.1827 15.3588H25.8413V16.6427H29.1827C29.375 16.6427 29.5192 16.7853 29.5192 16.9755V18.188C29.5192 18.3782 29.375 18.5209 29.1827 18.5209H24.2788C24.2788 18.5209 24.1106 18.4733 24.0385 18.4258C23.9904 18.3545 23.9423 18.2831 23.9423 18.188V10.6513C23.9423 10.6513 23.9904 10.4849 24.0385 10.4135C24.1106 10.366 24.1827 10.3184 24.2788 10.3184H29.1827C29.375 10.3184 29.5192 10.4611 29.5192 10.6513V11.8638Z" fill="#2BAC38"/>
</g>
<defs>
<clipPath id="clip0_141_20668">
<rect width="35" height="33" fill="white"/>
</clipPath>
</defs>
</svg>
