<svg width="240" height="72" viewBox="0 0 240 72" fill="none" xmlns="http://www.w3.org/2000/svg">
<rect x="16" y="18.5" width="35" height="35" rx="17.5" fill="#06C42C"/>
<path d="M40.5 45V43C40.5 41.9391 40.0786 40.9217 39.3284 40.1716C38.5783 39.4214 37.5609 39 36.5 39H30.5C29.4391 39 28.4217 39.4214 27.6716 40.1716C26.9214 40.9217 26.5 41.9391 26.5 43V45" stroke="white" stroke-width="2" stroke-linecap="round" stroke-linejoin="round"/>
<path d="M33.5 35C35.7091 35 37.5 33.2091 37.5 31C37.5 28.7909 35.7091 27 33.5 27C31.2909 27 29.5 28.7909 29.5 31C29.5 33.2091 31.2909 35 33.5 35Z" stroke="white" stroke-width="2" stroke-linecap="round" stroke-linejoin="round"/>
<g clip-path="url(#clip0_141_17930)">
<path d="M209.638 43.3841C209.523 43.3478 209.414 43.3115 209.299 43.3115C208.542 43.3115 207.979 44.2913 207.979 45.2347C207.979 45.9907 208.355 46.668 209.299 46.668C210.467 46.668 210.994 45.8032 210.994 44.9747C210.994 44.1461 210.504 43.3176 209.638 43.3901V43.3841Z" fill="#1A1A1A"/>
<path d="M124.662 38.4491C124.51 38.4491 124.395 38.5217 124.359 38.6366C123.868 41.2009 122.7 44.5876 122.058 44.5876C121.568 44.5876 120.963 42.5918 120.963 39.5377C120.963 38.05 120.981 35.3527 121.017 33.9193C122.046 33.6835 122.755 33.5988 123.148 33.5504C123.372 33.5141 123.451 33.3266 123.451 33.0968C123.451 32.4195 122.809 31.2885 122.319 31.2885C122.113 31.2885 121.744 31.3006 121.09 31.4156C121.066 28.9057 121.108 26.027 121.187 25.8637C121.259 25.7488 121.302 25.525 121.302 25.4101C121.302 24.6178 120.018 23.5292 119.34 23.5292C119.074 23.5292 118.814 23.8679 118.814 24.2066C118.814 24.4364 118.923 25.0835 118.917 25.6883C118.892 27.5631 118.917 29.5952 118.85 31.8933C118.668 31.9478 117.736 32.2441 117.494 32.3409C117.27 32.4316 117.119 32.5283 117.119 32.7158C117.119 33.3569 117.936 34.2399 118.747 34.3245C118.632 35.7579 118.257 37.8746 117.99 39.2656C117.966 39.3623 117.954 39.453 117.954 39.568C117.954 39.6345 117.96 39.701 117.972 39.7615C117.052 43.1845 115.393 44.9505 114.576 44.9384C113.777 44.9505 113.438 43.2934 113.299 42.1625C115.853 42.0536 116.798 37.3424 116.798 34.6693C116.798 32.8247 116.344 30.9378 114.643 30.8652C114.485 30.8592 114.382 30.8229 114.261 30.7201C113.977 30.4963 113.619 30.333 113.293 30.333C111.809 30.333 111.028 35.1228 111.028 39.0478C111.028 39.7615 111.059 40.457 111.113 41.1041C110.266 43.88 109.134 45.5432 108.698 45.5371C108.201 45.5492 107.602 43.4022 107.366 41.5335C109.297 38.5761 110.544 30.7805 110.544 25.5855C110.544 23.5534 110.242 21.4791 109.067 20.9529C108.655 20.7654 108.359 20.2393 107.826 20.2393C105.731 20.2393 104.92 28.2768 104.92 35.1773C104.92 36.7013 104.944 38.4794 105.102 40.1667C104.242 43.5111 102.904 45.5492 102.42 45.5371C101.924 45.5492 101.324 43.4022 101.088 41.5335C103.019 38.5761 104.266 30.7805 104.266 25.5855C104.266 23.5534 103.964 21.4791 102.789 20.9529C102.378 20.7654 102.081 20.2393 101.548 20.2393C99.4537 20.2393 98.6425 28.2768 98.6425 35.1773C98.6425 36.3989 98.6607 37.7839 98.7454 39.1507C98.2733 41.3279 97.341 43.8619 96.9959 43.8619C96.7961 43.8619 96.7174 42.7854 96.7174 40.9348C96.7174 38.1588 96.8688 33.0726 97.0625 32.099C97.0625 32.0627 97.0686 32.0264 97.0686 31.9961C97.0686 31.3188 96.1605 30.5931 95.5127 30.5931C95.2343 30.5931 94.6168 30.8471 94.6168 31.1978C94.6168 31.4095 94.6773 31.8449 94.6773 32.5465C94.6773 38.0439 93.4363 44.2913 92.6554 44.2973C92.2982 44.2973 92.159 42.1383 92.159 39.5982C92.159 36.6771 92.2679 32.3651 92.5343 31.1918C92.5706 31.1253 92.5888 31.0527 92.5888 30.9862C92.5888 30.4298 91.7655 29.571 91.0269 29.571C90.7303 29.571 90.0099 29.952 90.0099 30.2786C90.0099 30.5023 90.0765 30.9862 90.0765 31.4881C90.0765 33.5565 89.9736 38.1588 89.9736 41.1646C89.9736 43.3236 90.5729 44.0917 90.9603 44.8719C91.4446 45.8335 91.9531 46.4322 92.6312 46.4322C93.63 46.4322 94.2778 44.5271 94.6471 42.489C94.6531 42.4346 94.6834 42.4044 94.7015 42.4044C94.7258 42.4044 94.7439 42.4286 94.75 42.4951C94.8711 43.3539 95.1374 43.9405 95.434 44.4788C96.1605 45.7972 96.7356 45.9302 96.9959 45.9302C97.8798 45.9302 98.6728 44.5513 99.2419 42.997C99.6475 44.7569 100.319 46.1177 101.433 46.5168C101.724 46.6197 102.378 46.9704 102.789 46.9704C104.018 46.9704 104.999 45.4222 105.689 43.6321C106.107 45.0835 106.742 46.1721 107.717 46.5229C108.008 46.6257 108.661 46.9765 109.073 46.9765C110.193 46.9765 111.095 45.7004 111.773 44.1219C112.015 44.7146 112.385 45.392 113.147 45.8395C113.874 46.2628 114.237 46.5955 114.988 46.5955C116.767 46.5955 118.087 44.3094 118.862 42.0959C118.965 42.7733 119.153 43.3539 119.346 43.8135C119.685 44.6118 120.085 45.0533 120.672 45.4706C121.235 45.8697 121.689 46.4866 122.331 46.4866C124.256 46.4866 125.685 40.1969 125.685 39.2535C125.685 38.8362 125.158 38.4249 124.668 38.4249L124.662 38.4491ZM100.816 36.5259C100.816 30.5749 101.53 22.2532 102.287 22.2532C102.438 22.2532 102.626 22.5556 102.626 25.4948C102.626 30.3511 101.645 37.3242 100.913 39.7917C100.858 38.8301 100.816 37.6992 100.816 36.532V36.5259ZM107.1 36.5259C107.1 30.5749 107.814 22.2532 108.571 22.2532C108.722 22.2532 108.91 22.5556 108.91 25.4948C108.91 30.3511 107.929 37.3242 107.196 39.7917C107.142 38.8301 107.1 37.6992 107.1 36.532V36.5259ZM114.461 32.105C114.721 32.0869 114.867 33.5565 114.854 34.639C114.867 37.173 114.225 39.9187 113.208 41.2734C113.232 36.7376 113.965 32.105 114.455 32.105H114.461Z" fill="#1A1A1A"/>
<path d="M84.0409 39.6528C86.6622 38.1046 89.4529 35.5101 89.4529 31.325C89.4529 26.7287 86.0568 22.3622 81.3894 20.3543C81.4196 19.8342 81.4559 19.2778 81.4983 19.1266C81.5528 19.042 81.577 18.9512 81.5831 18.8666C81.6073 18.5218 80.7719 17.1309 79.767 17.1309C79.543 17.1309 78.9739 17.4695 78.9739 17.6933C78.9739 17.9594 79.0102 18.5944 79.0102 19.5742V19.6286C77.8055 19.3081 76.7461 19.2355 76.1468 19.2355C75.0511 19.2355 74.1128 19.4593 73.5861 20.4027C72.9807 21.455 72 22.0961 72 23.5294C72 26.8073 77.9569 36.3386 78.9013 42.3561C78.9376 43.0577 78.9739 43.735 78.9679 44.358C77.8963 43.9346 76.8975 43.4931 76.2255 42.8158C76.1529 42.6283 76.0378 42.5497 75.9228 42.5497C75.6201 42.5497 75.1661 43.1907 75.1661 43.8681C75.1661 44.3217 75.4688 44.8115 75.6928 45.1139C76.2255 45.8639 77.3939 46.5049 78.9194 46.8678C78.9073 47.9503 78.7741 48.0955 78.7499 48.2406C78.7197 48.3253 78.7075 48.41 78.7075 48.4886C78.7015 48.9422 79.882 49.9703 80.6387 49.9703C80.8264 49.9703 81.4681 49.7828 81.4681 49.4078C81.4681 49.2264 81.3591 48.8696 81.347 47.1762C81.4983 47.1762 81.6557 47.1823 81.8071 47.1823C86.8196 47.1823 89.7254 45.2228 89.7254 43.0033C89.7254 40.5176 85.9902 39.6891 84.0469 39.6528H84.0409ZM78.8649 33.9316V36.9978C78.8649 37.1188 78.8468 37.2034 78.8044 37.2034C78.7802 37.2034 78.762 37.1671 78.7439 37.0885C77.7753 32.7644 74.0764 24.1765 74.0764 22.5618C74.0764 21.8481 74.7545 21.7332 75.5475 21.7332C76.6008 21.7332 77.8842 21.9207 78.9921 22.2715C78.9497 25.0776 78.8649 28.4946 78.8649 33.9376V33.9316ZM81.238 33.6655C81.238 28.7547 81.2501 25.6098 81.3046 23.1C85.1245 25.2228 87.0799 28.9543 87.0799 32.0084C87.0799 36.9071 82.14 39.5016 81.2622 39.937C81.2441 37.3909 81.232 34.7843 81.232 33.6655H81.238ZM83.7261 45.3075C83.0118 45.3075 82.1824 45.2349 81.3107 45.0655C81.2985 43.9104 81.2864 42.586 81.2743 41.2494C81.692 41.195 82.0916 41.1647 82.5154 41.1647C84.9308 41.1647 87.1162 42.1082 87.1162 43.5778C87.1162 44.7813 85.2698 45.3075 83.72 45.3075H83.7261Z" fill="#1A1A1A"/>
<path d="M172.892 31.1072C172.595 30.8774 172.135 30.7685 171.796 30.6536C171.457 30.5387 171.118 30.2363 170.743 30.2363C169.853 30.2363 169.223 33.4658 168.727 37.1308C168.709 37.2457 168.672 37.2941 168.642 37.2941C168.618 37.2941 168.587 37.2638 168.587 37.155C168.696 33.6533 168.89 29.8553 169.005 29.184C169.017 29.1235 169.023 29.0691 169.023 29.0086C169.011 28.0894 167.946 27.3031 167.389 27.3031C166.898 27.3031 166.523 27.6055 166.523 27.8293C166.523 28.168 166.596 28.5429 166.596 29.559C166.596 31.6394 166.535 35.5281 166.493 39.2233C166.015 41.3884 165.101 43.8801 164.755 43.8801C164.556 43.8801 164.477 42.8036 164.477 40.953C164.477 38.1771 164.628 33.0909 164.822 32.1172C164.822 32.0809 164.828 32.0446 164.828 32.0144C164.828 31.337 163.92 30.6113 163.272 30.6113C162.994 30.6113 162.376 30.8653 162.376 31.2161C162.376 31.4277 162.437 31.8632 162.437 32.5647C162.437 38.0621 161.196 44.3095 160.415 44.3155C160.058 44.3155 159.919 42.1565 159.919 39.6164C159.919 36.6953 160.027 32.3833 160.294 31.21C160.33 31.1435 160.348 31.0709 160.348 31.0044C160.348 30.448 159.525 29.5892 158.786 29.5892C158.49 29.5892 157.769 29.9702 157.769 30.2968C157.769 30.5206 157.836 31.0044 157.836 31.5064C157.836 32.8187 157.794 35.1653 157.763 37.4695C157.346 37.8444 156.825 38.2073 156.232 38.5399C156.244 38.1952 156.25 37.8505 156.25 37.5058C156.25 35.0745 155.941 32.8248 155.33 31.7725C154.93 31.077 154.367 30.7201 153.689 30.5689C153.35 30.4903 152.963 30.1154 152.4 30.1154C150.632 30.1154 149.282 33.6412 149.282 37.2457C149.282 38.0138 149.391 38.6609 149.597 39.2112C149.076 41.7452 147.69 44.7994 147.133 44.7994C146.848 44.7994 146.77 44.2006 146.77 43.1483C146.77 40.3603 147.29 36.1752 148.162 33.5082C148.186 33.4416 148.192 33.357 148.192 33.2663C148.192 32.8973 148.09 32.5647 147.593 32.1898C146.909 31.6696 146.879 30.7988 145.862 30.7988C145.39 30.7988 144.185 31.21 143.997 31.2705C143.967 30.581 143.937 29.5711 143.828 29.1417C143.658 28.4583 142.883 27.9382 142.32 27.9382C141.806 27.9382 141.418 29.3292 141.418 29.9097C141.418 31.3612 141.987 32.4438 142.405 33.1634C142.375 36.2962 141.745 40.2575 141.025 42.1928C140.74 41.8783 140.329 41.6787 139.717 41.6787C139.154 41.6787 138.851 41.8299 138.839 42.2049C138.839 42.2714 138.858 42.35 138.888 42.4286C138.924 42.7371 138.997 44.3579 139.003 45.0292C137.986 45.253 136.89 45.4041 136.024 45.4041C133.27 45.4041 132.065 43.8983 132.065 39.3745C132.065 31.3128 135.873 21.6364 138.095 21.6364C138.198 21.6364 138.301 21.6545 138.397 21.7029C138.391 23.3056 138.361 25.4283 138.361 28.1498C138.361 28.9421 138.246 34.7419 138.246 35.7579C138.246 36.2478 138.773 37.1489 139.451 37.1489C139.905 37.1489 140.547 36.8949 140.547 36.5079C140.547 36.3446 140.504 36.1692 140.492 36.0301C140.444 35.4011 140.419 34.3367 140.419 33.0425C140.419 30.327 141.043 26.7165 141.043 25.0171C141.043 24.2551 140.819 23.4023 140.456 22.604C140.486 20.9409 140.54 19.1689 140.553 18.6125C140.553 18.4794 140.692 18.3101 140.692 18.171C140.692 17.5057 139.747 16.7256 139.082 16.7256C138.858 16.7256 138.325 16.9494 138.325 17.2155C138.325 17.6328 138.361 19.3261 138.385 20.0519C137.986 19.8039 137.574 19.6588 137.156 19.6588C133.01 19.6588 129.656 30.1275 129.656 38.1891C129.656 40.7534 129.995 43.1967 131.405 44.7449C133.185 46.6984 134.408 47.7567 136.03 47.7567C136.975 47.7567 137.956 47.4906 139.009 46.8254C139.009 47.2487 139.045 47.6358 139.045 48.3615C139.045 51.4096 138.706 52.6191 137.689 52.6191C136.521 52.6191 133.918 51.1132 132.598 49.305C132.483 49.0812 132.374 49.0389 132.259 49.0389C131.696 49.0389 131.242 50.1335 131.242 50.7322C131.242 51.2584 131.46 52.0204 131.956 52.5405C132.604 53.2118 134.559 54.3488 136.593 54.3488C138.216 54.3488 138.858 53.6352 139.723 53.1453C141.079 52.3893 141.231 50.8471 141.267 49.0389V45.4586C141.34 45.2167 141.406 44.9506 141.455 44.6784C141.745 44.6361 142.042 44.503 142.181 44.2853C143.234 42.6101 143.84 36.393 143.937 33.236C144.421 33.1514 144.972 33.0788 145.668 33.0667C145.141 35.2862 144.542 38.7637 144.542 41.4429C144.542 43.1241 144.778 44.5333 145.414 45.2227C146.455 46.3476 146.915 46.6984 147.52 46.6984C148.386 46.6984 149.252 45.259 149.9 43.608C149.984 43.8922 150.093 44.1583 150.226 44.4002C150.838 45.5372 151.383 45.7912 152.218 46.0573C152.709 46.2146 153.017 46.396 153.429 46.396C154.839 46.396 155.711 43.7773 156.062 40.705C156.668 40.4571 157.243 40.1547 157.733 39.8281C157.733 40.2938 157.733 40.7413 157.733 41.1586C157.733 43.3177 158.332 44.0857 158.72 44.8659C159.204 45.8275 159.713 46.4262 160.391 46.4262C161.39 46.4262 162.037 44.5212 162.407 42.4831C162.413 42.4286 162.443 42.3984 162.461 42.3984C162.485 42.3984 162.503 42.4226 162.51 42.4891C162.631 43.3479 162.897 43.9345 163.194 44.4728C163.92 45.7912 164.495 45.9243 164.755 45.9243C165.379 45.9243 165.954 45.2409 166.438 44.2914C166.438 44.5937 166.438 44.878 166.438 45.1562C166.438 47.1701 166.438 51.8269 166.354 53.6594C166.348 53.8227 166.281 54.3428 166.281 54.6512C166.281 55.1774 167.183 55.9696 167.867 55.9696C168.551 55.9696 168.89 55.51 168.884 55.2318C168.884 55.1834 168.872 55.129 168.848 55.0624C168.769 54.8629 168.745 53.4477 168.733 51.6817C168.727 49.9702 168.733 47.9261 168.733 46.3355C169.096 46.5835 169.526 46.7407 170.016 46.7407C172.577 46.7407 174.163 41.8057 174.163 35.9696C174.163 32.9578 173.751 31.7483 172.88 31.0709L172.892 31.1072ZM152.4 45.005C152.067 45.005 151.704 42.6947 151.685 41.207C152.152 41.3521 152.684 41.4247 153.272 41.4247C153.411 41.4247 153.562 41.4187 153.713 41.4005C153.35 43.8136 152.709 45.005 152.394 45.005H152.4ZM153.913 39.5318C153.156 39.7616 152.406 39.9007 151.74 39.9188L151.722 39.8946C151.813 38.6125 152.043 37.7537 152.261 37.5904C152.37 37.5178 152.406 37.4029 152.406 37.3243C152.4 36.8949 151.897 36.3506 151.365 36.2236C151.728 33.9618 152.654 31.6757 153.108 31.6757C153.635 31.6757 153.974 34.6875 153.974 37.5904C153.974 38.292 153.95 38.9391 153.913 39.5378V39.5318ZM168.745 45.5372V44.4788C169.223 39.7555 170.706 31.8208 171.457 31.8208C171.832 31.8208 171.911 33.7017 171.911 34.5302C171.911 37.288 171.07 44.9929 168.745 45.5372Z" fill="#1A1A1A"/>
<path d="M207.095 37.1672C206.871 37.1672 206.696 37.2398 206.641 37.5785C205.848 43.0033 203.397 45.3378 202.258 45.3257C201.338 45.3136 200.951 42.9489 200.951 40.173C200.951 36.7136 201.477 32.4258 202.567 31.4763C202.549 32.4076 202.446 34.73 202.41 35.6492C202.379 36.5564 202.301 37.3608 202.301 37.772C202.301 38.4735 203.354 39.2053 203.657 39.2053C204.147 39.2053 204.45 38.9029 204.45 38.6429C204.45 38.1107 204.414 37.778 204.414 36.6834C204.414 34.1978 204.529 30.5086 204.638 30.055C204.674 29.9401 204.71 29.7526 204.71 29.6801C204.71 29.0027 203.766 28.3254 203.239 28.3254C203.015 28.3254 202.41 28.5915 202.41 28.9664C202.41 29.1176 202.561 30.0974 202.561 30.6598C202.222 30.3211 201.659 29.9825 201.205 29.9825C199.577 29.9825 198.62 35.238 198.62 39.4593C198.62 39.8282 198.62 40.1911 198.638 40.5479C198.148 42.2111 197.488 43.7653 197.131 43.7653C196.865 43.7653 196.713 42.8642 196.713 40.8685C196.713 39.2779 196.877 35.9758 197.216 33.7502C197.246 33.593 197.397 33.3632 197.397 33.2301C197.397 32.5407 196.18 31.3372 195.393 31.3372C194.939 31.3372 194.479 31.6396 194.449 32.0145C194.34 33.4962 193.347 38.9695 192.494 42.1445C192.469 42.2413 192.439 42.2776 192.415 42.2776C192.391 42.2776 192.379 42.2474 192.379 42.205C192.379 40.179 192.457 35.9093 192.47 34.3611C192.488 32.4621 192.524 31.1678 192.603 30.8473C192.615 30.811 192.621 30.7687 192.621 30.7263C192.621 30.2728 191.828 29.6015 191.132 29.6015C190.756 29.6015 190.115 29.7164 190.115 30.0913C190.115 30.3151 190.23 31.0348 190.23 31.9359C190.23 34.0829 190.193 39.1327 190.193 41.8784C190.193 42.6586 190.199 43.3722 190.211 43.971C189.897 43.6988 189.546 43.4992 189.219 43.4992C188.777 43.4992 187.729 43.5416 186.942 43.6081C186.906 36.1633 186.882 31.5972 186.882 29.8978C186.882 27.3577 186.894 24.2371 186.936 21.7877C187.457 21.7696 188.323 21.7635 188.765 21.7635C189.558 21.7635 190.199 21.7998 190.611 21.8361C190.914 21.8663 191.023 21.6849 191.023 21.4249C191.023 20.6689 190.078 19.2053 188.874 19.2053C188.407 19.2053 187.53 19.2235 187.009 19.2537C187.009 18.7275 187.051 18.3103 187.106 18.1107C187.154 18.0321 187.179 17.9474 187.179 17.8627C187.197 17.137 185.931 16 185.375 16C184.999 16 184.581 16.3387 184.581 16.5624C184.581 16.8285 184.654 17.4636 184.654 18.2558C184.654 18.6852 184.654 18.8304 184.642 19.3626C182.85 19.5138 180.883 19.9069 179.636 20.2939C179.03 20.4814 177.941 20.8564 177.638 21.9147C177.438 22.6163 176.96 23.9891 176.96 24.6241C176.96 25.0414 177.075 25.4527 177.371 25.87C179.399 28.658 184.055 34.5062 184.497 40.3181C184.497 41.5458 184.539 42.9247 184.539 43.8682C182.493 44.1222 180.55 44.4548 179.557 44.6665C179.514 44.6544 179.478 44.6483 179.442 44.6483C179.242 44.6483 179.109 44.8419 179.109 45.1926C179.109 45.87 179.938 46.8134 180.55 46.8013C180.719 46.8013 181.046 46.632 181.143 46.5897C181.99 46.4808 182.983 46.3236 184.491 46.1603C184.479 46.886 184.454 47.14 184.388 47.4908C184.357 47.5815 184.339 47.6662 184.339 47.7508C184.339 48.5733 185.78 49.0692 186.531 49.0692C186.833 49.0692 187.021 48.9906 187.021 48.8455C187.021 48.6036 186.979 47.5513 186.955 45.9305C187.947 45.8518 189.364 45.7793 190.526 45.7248C190.914 46.1663 191.58 46.4687 191.997 46.4687C192.264 46.4687 192.415 46.3538 192.451 46.0151C193.111 43.8077 193.717 40.8564 194.358 38.2437C194.389 38.1107 194.443 38.0441 194.479 38.0441C194.516 38.0441 194.54 38.0865 194.54 38.1832C194.54 38.2014 194.54 38.2256 194.54 38.2437C194.479 38.8666 194.437 39.544 194.437 40.2153C194.437 41.8542 194.691 43.463 195.557 44.225C196.205 44.7935 196.622 45.4103 197.355 45.4103C198.039 45.4103 198.644 44.7028 199.141 43.7412C199.498 44.7995 200.091 45.6462 201.06 46.1603C201.629 46.4627 202.192 46.9162 202.985 46.9162C205.963 46.9162 207.888 40.4754 207.888 38.4433C207.888 37.9171 207.513 37.1612 207.095 37.1612V37.1672ZM184.503 30.1639V35.0505C182.874 30.2667 178.709 24.2492 178.709 23.342C178.709 22.6647 181.155 22.1264 184.612 21.9147C184.569 24.4729 184.509 27.4908 184.509 30.1639H184.503Z" fill="#1A1A1A"/>
</g>
<defs>
<clipPath id="clip0_141_17930">
<rect width="139" height="40" fill="white" transform="translate(72 16)"/>
</clipPath>
</defs>
</svg>
